 http://img221.imageshack.us/img221/997/badteacherposters.jpg

Country.......: USA
Genre.........: Comedy
Date release..: 17.06.2011 [World]
Director......: Jake Kasdan
Writers.......: Gene Stupnitsky, Lee Eisenberg
Duration......: 88 min.
More..........: http://www.imdb.com/title/tt1284575
Trailer.......: http://www.imdb.com/video/imdb/vi3131219225
Trailer.......:

Pilot :
A comedy centered around a foul-mouthed, junior high teacher who, after being dumped by her sugar daddy, begins to woo a colleague -- a move that pits her against a well-loved teacher. 

Cats :
Cameron Diaz   	 ...  	Elizabeth Halsey
Lucy Punch 	... 	Amy Squirrel
Jason Segel 	... 	Russell Gettis
Justin Timberlake 	... 	Scott Delacorte
Phyllis Smith 	... 	Lynn Davies
John Michael Higgins 	... 	Principal Wally Snur
Dave Allen 	... 	Sandy Pinkus (as Dave Gruber Allen)
Jillian Armenante 	... 	Ms. Pavicic
Matthew J. Evans 	... 	Garrett Tiara
Kaitlyn Dever 	... 	Sasha Abernathy
Kathryn Newton 	... 	Chase Rubin Rossi
Igal Ben Yair 	... 	Arkady
Aja Bair 	... 	Devon
Andra Nechita 	... 	Gaby
Noah Munck 	... 	Tristan 

Data Technical :
!!! SAMPLE !!!
Audio.....: English
Subtitles.: None
Format                           : AVI
Format/Info                      : Audio Video Interleave
File size                        : 637 MiB
Duration                         : 1h 28mn
Overall bit rate                 : 1 009 Kbps
Writing library                  : VirtualDub build 32842/release
Video
ID                               : 0
Format                           : MPEG-4 Visual
Format profile                   : Advanced Simple@L5
Format settings, BVOP            : Yes
Format settings, QPel            : No
Format settings, GMC             : No warppoints
Format settings, Matrix          : Default (H.263)
Codec ID                         : XVID
Codec ID/Hint                    : XviD
Duration                         : 1h 28mn
Bit rate                         : 871 Kbps
Width                            : 720 pixels
Height                           : 384 pixels
Display aspect ratio             : 1.875
Frame rate                       : 25.000 fps
Color space                      : YUV
Chroma subsampling               : 4:2:0
Bit depth                        : 8 bits
Scan type                        : Progressive
Bits/(Pixel*Frame)               : 0.126
Stream size                      : 550 MiB (86%)
Writing library                  : XviD 63
Audio
ID                               : 1
Format                           : MPEG Audio
Format version                   : Version 1
Format profile                   : Layer 3
Mode                             : Joint stereo
Mode extension                   : MS Stereo
Codec ID                         : 55
Codec ID/Hint                    : MP3
Duration                         : 1h 28mn
Bit rate mode                    : Constant
Bit rate                         : 128 Kbps
Channel(s)                       : 2 channels
Sampling rate                    : 44.1 KHz
Stream size                      : 80.8 MiB (13%)
Alignment                        : Split accross interleaves
Interleave, duration             : 40 ms (1.00 video frame)
Interleave, preload duration     : 500 ms
Writing library                  : LAME3.98r
Encoding settings                : -m j -V 4 -q 2 -lowpass 17 -b 128

Screen : 
http://img97.imageshack.us/img97/2934/badteacher2011s1.jpg 
http://img641.imageshack.us/img641/7863/badteacher2011s2.jpg 
http://img828.imageshack.us/img828/3080/badteacher2011s3.jpg 
http://img28.imageshack.us/img28/5143/badteacher2011s4.jpg 
http://img88.imageshack.us/img88/1417/badteacher2011s5.jpg